<svg xmlns="http://www.w3.org/2000/svg" width="44" height="44" viewBox="0 0 44 44"><defs><style>.a{fill:none;}.b{fill:#fff;}</style></defs><path class="a" d="M0,0H44V44H0Z"/><path class="b" d="M10.642,19.446A31.98,31.98,0,0,0,24.554,33.358L29.2,28.713a2.1,2.1,0,0,1,2.153-.507,24.081,24.081,0,0,0,7.537,1.2A2.117,2.117,0,0,1,41,31.521v7.368A2.117,2.117,0,0,1,38.889,41,35.886,35.886,0,0,1,3,5.111,2.117,2.117,0,0,1,5.111,3H12.5a2.117,2.117,0,0,1,2.111,2.111,23.983,23.983,0,0,0,1.2,7.537,2.119,2.119,0,0,1-.528,2.153Z"/></svg>